<?xml version="1.0" standalone="no"?>
<!DOCTYPE svg PUBLIC "-//W3C//DTD SVG 20010904//EN"
 "http://www.w3.org/TR/2001/REC-SVG-20010904/DTD/svg10.dtd">
<svg version="1.0" xmlns="http://www.w3.org/2000/svg"
 width="124.000000pt" height="124.000000pt" viewBox="0 0 124.000000 124.000000"
 preserveAspectRatio="xMidYMid meet">

<g transform="translate(0.000000,124.000000) scale(0.100000,-0.100000)"
fill="#000000" stroke="none">
<path d="M550 1230 c-316 -40 -542 -295 -542 -610 0 -342 270 -612 612 -612
110 0 223 30 313 83 399 236 399 822 0 1058 -108 64 -263 97 -383 81z m219
-357 c300 -307 276 -279 263 -308 -23 -50 -47 -35 -227 145 -93 94 -177 170
-186 170 -9 0 -92 -76 -185 -170 -178 -180 -203 -196 -226 -145 -10 23 -5 31
92 132 211 220 307 313 321 313 8 0 74 -62 148 -137z m7 -190 l143 -148 1
-141 c0 -96 -4 -144 -12 -152 -17 -17 -192 -16 -206 1 -6 7 -12 51 -14 97 l-3
85 -65 0 -65 0 -3 -85 c-2 -46 -8 -90 -14 -97 -14 -17 -189 -18 -206 -1 -8 8
-12 56 -12 152 l0 141 141 148 c78 81 148 147 156 147 8 0 80 -66 159 -147z"/>
</g>
</svg>
