<?xml version="1.0" standalone="no"?>
<!DOCTYPE svg PUBLIC "-//W3C//DTD SVG 20010904//EN"
 "http://www.w3.org/TR/2001/REC-SVG-20010904/DTD/svg10.dtd">
<svg version="1.0" xmlns="http://www.w3.org/2000/svg"
 width="1200.000000pt" height="1200.000000pt" viewBox="0 0 1200.000000 1200.000000"
 preserveAspectRatio="xMidYMid meet">

<g transform="translate(0.000000,1200.000000) scale(0.100000,-0.100000)"
fill="#000000" stroke="none">
<path d="M5575 10854 c-2214 -199 -4012 -1858 -4379 -4039 -52 -313 -61 -424
-61 -815 0 -391 9 -502 61 -815 341 -2028 1946 -3639 3970 -3985 321 -55 445
-65 839 -64 386 0 508 9 810 60 1481 252 2753 1165 3474 2491 296 544 483
1152 558 1804 25 219 25 810 0 1024 -123 1035 -519 1938 -1184 2696 -793 906
-1894 1486 -3088 1628 -281 34 -721 40 -1000 15z m655 -734 c1311 -79 2480
-748 3204 -1835 651 -975 855 -2182 561 -3318 -347 -1343 -1360 -2433 -2673
-2877 -282 -95 -634 -170 -947 -201 -156 -16 -596 -16 -750 0 -988 100 -1853
507 -2541 1195 -907 908 -1339 2168 -1178 3437 170 1350 1009 2538 2229 3159
648 330 1378 483 2095 440z"/>
<path d="M5820 8994 c-14 -2 -52 -9 -85 -15 -255 -46 -502 -249 -604 -497 -90
-218 -85 -472 14 -681 185 -389 622 -576 1028 -441 268 90 474 309 548 585 30
112 30 307 0 420 -96 361 -408 613 -780 629 -53 3 -107 3 -121 0z"/>
<path d="M5730 6709 c-553 -20 -1056 -38 -1117 -38 l-113 -1 0 -189 0 -189
238 1 c190 1 251 -2 311 -15 142 -33 229 -106 250 -211 8 -37 11 -411 9 -1257
-3 -1155 -4 -1207 -22 -1254 -24 -63 -80 -119 -142 -141 -45 -15 -284 -31
-521 -34 l-53 -1 0 -190 0 -190 1465 0 1465 0 0 190 0 190 -42 0 c-24 1 -128
5 -233 10 -149 6 -205 13 -258 30 -81 25 -136 74 -155 136 -9 32 -12 402 -12
1618 l0 1576 -32 -1 c-18 -1 -485 -19 -1038 -40z"/>
</g>
</svg>
